<svg width="366" height="114" viewBox="0 0 366 114" fill="none" xmlns="http://www.w3.org/2000/svg">
<g filter="url(#filter0_d_5:4)">
<path d="M91.2344 55.1328C91.2344 65.2109 89.4531 74.0469 85.8906 81.6406C82.3281 89.2344 77.2188 95.0938 70.5625 99.2188C63.9531 103.344 56.3594 105.406 47.7812 105.406C39.2969 105.406 31.7266 103.367 25.0703 99.2891C18.4141 95.2109 13.2578 89.3984 9.60156 81.8516C5.94531 74.2578 4.09375 65.5391 4.04688 55.6953V50.6328C4.04688 40.5547 5.85156 31.6953 9.46094 24.0547C13.1172 16.3672 18.25 10.4844 24.8594 6.40625C31.5156 2.28125 39.1094 0.21875 47.6406 0.21875C56.1719 0.21875 63.7422 2.28125 70.3516 6.40625C77.0078 10.4844 82.1406 16.3672 85.75 24.0547C89.4062 31.6953 91.2344 40.5312 91.2344 50.5625V55.1328ZM69.8594 50.4922C69.8594 39.7578 67.9375 31.6016 64.0938 26.0234C60.25 20.4453 54.7656 17.6562 47.6406 17.6562C40.5625 17.6562 35.1016 20.4219 31.2578 25.9531C27.4141 31.4375 25.4688 39.5 25.4219 50.1406V55.1328C25.4219 65.5859 27.3438 73.6953 31.1875 79.4609C35.0312 85.2266 40.5625 88.1094 47.7812 88.1094C54.8594 88.1094 60.2969 85.3438 64.0938 79.8125C67.8906 74.2344 69.8125 66.125 69.8594 55.4844V50.4922ZM121.891 35.75L139.422 85.25L156.859 35.75H175.328V104H161.219V85.3438L162.625 53.1406L144.203 104H134.547L116.172 53.1875L117.578 85.3438V104H103.516V35.75H121.891ZM243.109 104H229.047L201.672 59.0938V104H187.609V35.75H201.672L229.094 80.75V35.75H243.109V104ZM296.453 74.4219H269.453V92.7031H301.141V104H255.391V35.75H301.047V47.1406H269.453V63.4062H296.453V74.4219ZM361.703 47.1406H340.797V104H326.734V47.1406H306.109V35.75H361.703V47.1406Z" fill="white"/>
<path d="M70.5625 99.2188L70.0357 98.3687L70.033 98.3704L70.5625 99.2188ZM9.60156 81.8516L8.70056 82.2854L8.70162 82.2876L9.60156 81.8516ZM4.04688 55.6953H3.04686L3.04689 55.7001L4.04688 55.6953ZM9.46094 24.0547L8.55787 23.6252L8.55675 23.6276L9.46094 24.0547ZM24.8594 6.40625L25.3845 7.25729L25.3861 7.25626L24.8594 6.40625ZM70.3516 6.40625L69.8221 7.25462L69.8291 7.25894L70.3516 6.40625ZM85.75 24.0547L84.8448 24.4797L84.848 24.4863L85.75 24.0547ZM31.2578 25.9531L32.0767 26.5271L32.079 26.5238L31.2578 25.9531ZM25.4219 50.1406L24.4219 50.1362V50.1406H25.4219ZM64.0938 79.8125L64.9182 80.3784L64.9204 80.3752L64.0938 79.8125ZM69.8594 55.4844L70.8594 55.4888V55.4844H69.8594ZM90.2344 55.1328C90.2344 65.0933 88.4742 73.7791 84.9853 81.2159L86.796 82.0653C90.4321 74.3146 92.2344 65.3286 92.2344 55.1328H90.2344ZM84.9853 81.2159C81.499 88.6473 76.5154 94.3532 70.0357 98.3687L71.0893 100.069C77.9221 95.8343 83.1573 89.8215 86.796 82.0653L84.9853 81.2159ZM70.033 98.3704C63.5983 102.386 56.1917 104.406 47.7812 104.406V106.406C56.527 106.406 64.308 104.301 71.092 100.067L70.033 98.3704ZM47.7812 104.406C39.4647 104.406 32.0782 102.41 25.5927 98.4364L24.5479 100.142C31.3749 104.325 39.1291 106.406 47.7812 106.406V104.406ZM25.5927 98.4364C19.1118 94.4657 14.0808 88.8036 10.5015 81.4156L8.70162 82.2876C12.4348 89.9932 17.7163 95.9562 24.5479 100.142L25.5927 98.4364ZM10.5026 81.4177C6.92074 73.9786 5.09315 65.4105 5.04686 55.6906L3.04689 55.7001C3.09435 65.6676 4.96988 74.537 8.70056 82.2854L10.5026 81.4177ZM5.04688 55.6953V50.6328H3.04688V55.6953H5.04688ZM5.04688 50.6328C5.04688 40.6743 6.82984 31.9656 10.3651 24.4818L8.55675 23.6276C4.87329 31.425 3.04688 40.4351 3.04688 50.6328H5.04688ZM10.364 24.4842C13.9458 16.9533 18.9547 11.2246 25.3845 7.25729L24.3343 5.55521C17.5453 9.74416 12.2886 15.7811 8.55787 23.6252L10.364 24.4842ZM25.3861 7.25626C31.8701 3.23801 39.2782 1.21875 47.6406 1.21875V-0.78125C38.9405 -0.78125 31.1611 1.32448 24.3326 5.55624L25.3861 7.25626ZM47.6406 1.21875C56.0031 1.21875 63.3865 3.23803 69.8221 7.25459L70.881 5.55791C64.0979 1.32447 56.3407 -0.78125 47.6406 -0.78125V1.21875ZM69.8291 7.25894C76.3041 11.226 81.3109 16.9529 84.8448 24.4797L86.6552 23.6297C82.9704 15.7815 77.7115 9.74277 70.874 5.55356L69.8291 7.25894ZM84.848 24.4863C88.4289 31.9696 90.2344 40.6534 90.2344 50.5625H92.2344C92.2344 40.4091 90.3836 31.421 86.652 23.623L84.848 24.4863ZM90.2344 50.5625V55.1328H92.2344V50.5625H90.2344ZM70.8594 50.4922C70.8594 39.6643 68.9253 31.2726 64.9172 25.456L63.2703 26.5908C66.9497 31.9305 68.8594 39.8514 68.8594 50.4922H70.8594ZM64.9172 25.456C60.8756 19.5908 55.0743 16.6562 47.6406 16.6562V18.6562C54.4569 18.6562 59.6244 21.2998 63.2703 26.5908L64.9172 25.456ZM47.6406 16.6562C40.2547 16.6562 34.4783 19.5664 30.4366 25.3825L32.079 26.5238C35.7249 21.2773 40.8703 18.6562 47.6406 18.6562V16.6562ZM30.4389 25.3792C26.4277 31.1026 24.4692 39.4023 24.4219 50.1362L26.4219 50.145C26.4683 39.5977 28.4005 31.7724 32.0767 26.5271L30.4389 25.3792ZM24.4219 50.1406V55.1328H26.4219V50.1406H24.4219ZM24.4219 55.1328C24.4219 65.6894 26.3596 74.0219 30.3554 80.0156L32.0196 78.9062C28.3279 73.3687 26.4219 65.4825 26.4219 55.1328H24.4219ZM30.3554 80.0156C34.3938 86.0731 40.2449 89.1094 47.7812 89.1094V87.1094C40.8801 87.1094 35.6687 84.38 32.0196 78.9062L30.3554 80.0156ZM47.7812 89.1094C55.1674 89.1094 60.923 86.1987 64.9182 80.3784L63.2693 79.2466C59.6708 84.4888 54.5513 87.1094 47.7812 87.1094V89.1094ZM64.9204 80.3752C68.877 74.5625 70.8121 66.2228 70.8594 55.4888L68.8594 55.48C68.8129 66.0272 66.9043 73.9062 63.2671 79.2498L64.9204 80.3752ZM70.8594 55.4844V50.4922H68.8594V55.4844H70.8594ZM121.891 35.75L122.833 35.4162L122.597 34.75H121.891V35.75ZM139.422 85.25L138.479 85.5838L139.424 88.2525L140.365 85.5823L139.422 85.25ZM156.859 35.75V34.75H156.151L155.916 35.4177L156.859 35.75ZM175.328 35.75H176.328V34.75H175.328V35.75ZM175.328 104V105H176.328V104H175.328ZM161.219 104H160.219V105H161.219V104ZM161.219 85.3438L160.22 85.3001L160.219 85.3219V85.3438H161.219ZM162.625 53.1406L163.624 53.1842L161.685 52.8001L162.625 53.1406ZM144.203 104V105H144.904L145.143 104.341L144.203 104ZM134.547 104L133.606 104.34L133.845 105H134.547V104ZM116.172 53.1875L117.112 52.8474L115.173 53.2312L116.172 53.1875ZM117.578 85.3438H118.578V85.3219L118.577 85.3001L117.578 85.3438ZM117.578 104V105H118.578V104H117.578ZM103.516 104H102.516V105H103.516V104ZM103.516 35.75V34.75H102.516V35.75H103.516ZM120.948 36.0838L138.479 85.5838L140.365 84.9162L122.833 35.4162L120.948 36.0838ZM140.365 85.5823L157.803 36.0823L155.916 35.4177L138.479 84.9177L140.365 85.5823ZM156.859 36.75H175.328V34.75H156.859V36.75ZM174.328 35.75V104H176.328V35.75H174.328ZM175.328 103H161.219V105H175.328V103ZM162.219 104V85.3438H160.219V104H162.219ZM162.218 85.3874L163.624 53.1842L161.626 53.097L160.22 85.3001L162.218 85.3874ZM161.685 52.8001L143.263 103.659L145.143 104.341L163.565 53.4812L161.685 52.8001ZM144.203 103H134.547V105H144.203V103ZM135.487 103.66L117.112 52.8474L115.231 53.5276L133.606 104.34L135.487 103.66ZM115.173 53.2312L116.579 85.3874L118.577 85.3001L117.171 53.1438L115.173 53.2312ZM116.578 85.3438V104H118.578V85.3438H116.578ZM117.578 103H103.516V105H117.578V103ZM104.516 104V35.75H102.516V104H104.516ZM103.516 36.75H121.891V34.75H103.516V36.75ZM243.109 104V105H244.109V104H243.109ZM229.047 104L228.193 104.521L228.485 105H229.047V104ZM201.672 59.0938L202.526 58.5732L200.672 55.5322V59.0938H201.672ZM201.672 104V105H202.672V104H201.672ZM187.609 104H186.609V105H187.609V104ZM187.609 35.75V34.75H186.609V35.75H187.609ZM201.672 35.75L202.526 35.2296L202.234 34.75H201.672V35.75ZM229.094 80.75L228.24 81.2704L230.094 84.3127V80.75H229.094ZM229.094 35.75V34.75H228.094V35.75H229.094ZM243.109 35.75H244.109V34.75H243.109V35.75ZM243.109 103H229.047V105H243.109V103ZM229.901 103.479L202.526 58.5732L200.818 59.6143L228.193 104.521L229.901 103.479ZM200.672 59.0938V104H202.672V59.0938H200.672ZM201.672 103H187.609V105H201.672V103ZM188.609 104V35.75H186.609V104H188.609ZM187.609 36.75H201.672V34.75H187.609V36.75ZM200.818 36.2704L228.24 81.2704L229.948 80.2296L202.526 35.2296L200.818 36.2704ZM230.094 80.75V35.75H228.094V80.75H230.094ZM229.094 36.75H243.109V34.75H229.094V36.75ZM242.109 35.75V104H244.109V35.75H242.109ZM296.453 74.4219V75.4219H297.453V74.4219H296.453ZM269.453 74.4219V73.4219H268.453V74.4219H269.453ZM269.453 92.7031H268.453V93.7031H269.453V92.7031ZM301.141 92.7031H302.141V91.7031H301.141V92.7031ZM301.141 104V105H302.141V104H301.141ZM255.391 104H254.391V105H255.391V104ZM255.391 35.75V34.75H254.391V35.75H255.391ZM301.047 35.75H302.047V34.75H301.047V35.75ZM301.047 47.1406V48.1406H302.047V47.1406H301.047ZM269.453 47.1406V46.1406H268.453V47.1406H269.453ZM269.453 63.4062H268.453V64.4062H269.453V63.4062ZM296.453 63.4062H297.453V62.4062H296.453V63.4062ZM296.453 73.4219H269.453V75.4219H296.453V73.4219ZM268.453 74.4219V92.7031H270.453V74.4219H268.453ZM269.453 93.7031H301.141V91.7031H269.453V93.7031ZM300.141 92.7031V104H302.141V92.7031H300.141ZM301.141 103H255.391V105H301.141V103ZM256.391 104V35.75H254.391V104H256.391ZM255.391 36.75H301.047V34.75H255.391V36.75ZM300.047 35.75V47.1406H302.047V35.75H300.047ZM301.047 46.1406H269.453V48.1406H301.047V46.1406ZM268.453 47.1406V63.4062H270.453V47.1406H268.453ZM269.453 64.4062H296.453V62.4062H269.453V64.4062ZM295.453 63.4062V74.4219H297.453V63.4062H295.453ZM361.703 47.1406V48.1406H362.703V47.1406H361.703ZM340.797 47.1406V46.1406H339.797V47.1406H340.797ZM340.797 104V105H341.797V104H340.797ZM326.734 104H325.734V105H326.734V104ZM326.734 47.1406H327.734V46.1406H326.734V47.1406ZM306.109 47.1406H305.109V48.1406H306.109V47.1406ZM306.109 35.75V34.75H305.109V35.75H306.109ZM361.703 35.75H362.703V34.75H361.703V35.75ZM361.703 46.1406H340.797V48.1406H361.703V46.1406ZM339.797 47.1406V104H341.797V47.1406H339.797ZM340.797 103H326.734V105H340.797V103ZM327.734 104V47.1406H325.734V104H327.734ZM326.734 46.1406H306.109V48.1406H326.734V46.1406ZM307.109 47.1406V35.75H305.109V47.1406H307.109ZM306.109 36.75H361.703V34.75H306.109V36.75ZM360.703 35.75V47.1406H362.703V35.75H360.703Z" fill="#F8F8F8"/>
</g>
<defs>
<filter id="filter0_d_5:4" x="0.046875" y="0.21875" width="365.656" height="113.188" filterUnits="userSpaceOnUse" color-interpolation-filters="sRGB">
<feFlood flood-opacity="0" result="BackgroundImageFix"/>
<feColorMatrix in="SourceAlpha" type="matrix" values="0 0 0 0 0 0 0 0 0 0 0 0 0 0 0 0 0 0 127 0" result="hardAlpha"/>
<feOffset dy="4"/>
<feGaussianBlur stdDeviation="2"/>
<feComposite in2="hardAlpha" operator="out"/>
<feColorMatrix type="matrix" values="0 0 0 0 0.0875 0 0 0 0 0.0805729 0 0 0 0 0.0805729 0 0 0 0.25 0"/>
<feBlend mode="normal" in2="BackgroundImageFix" result="effect1_dropShadow_5:4"/>
<feBlend mode="normal" in="SourceGraphic" in2="effect1_dropShadow_5:4" result="shape"/>
</filter>
</defs>
</svg>
