<svg width="141" height="38" viewBox="0 0 141 38" fill="none" xmlns="http://www.w3.org/2000/svg">
<g filter="url(#filter0_d_11:14)">
<path d="M27.6328 15.7651C27.6328 18.4946 27.1504 20.8877 26.1855 22.9443C25.2207 25.001 23.8369 26.5879 22.0342 27.7051C20.2441 28.8223 18.1875 29.3809 15.8643 29.3809C13.5664 29.3809 11.5161 28.8286 9.71338 27.7241C7.91064 26.6196 6.51416 25.0454 5.52393 23.0015C4.53369 20.9448 4.03223 18.5835 4.01953 15.9175V14.5464C4.01953 11.8169 4.5083 9.41748 5.48584 7.34814C6.47607 5.26611 7.86621 3.67285 9.65625 2.56836C11.459 1.45117 13.5156 0.892578 15.8262 0.892578C18.1367 0.892578 20.187 1.45117 21.9771 2.56836C23.7798 3.67285 25.1699 5.26611 26.1475 7.34814C27.1377 9.41748 27.6328 11.8105 27.6328 14.5273V15.7651ZM21.8438 14.5083C21.8438 11.6011 21.3232 9.39209 20.2822 7.88135C19.2412 6.37061 17.7559 5.61523 15.8262 5.61523C13.9092 5.61523 12.4302 6.36426 11.3892 7.8623C10.3481 9.34766 9.82129 11.5312 9.80859 14.4131V15.7651C9.80859 18.5962 10.3291 20.7925 11.3701 22.354C12.4111 23.9155 13.9092 24.6963 15.8643 24.6963C17.7812 24.6963 19.2539 23.9473 20.2822 22.4492C21.3105 20.9385 21.8311 18.7422 21.8438 15.8604V14.5083ZM39.249 1.27344L46.3711 21.3828L53.4551 1.27344H60.958V29H55.2261V21.4209L55.7974 8.33838L48.3135 29H44.3906L36.9258 8.35742L37.4971 21.4209V29H31.7842V1.27344H39.249ZM88.4941 29H82.7812L71.6602 10.7568V29H65.9473V1.27344H71.6602L82.8003 19.5547V1.27344H88.4941V29ZM110.165 16.9839H99.1963V24.4106H112.069V29H93.4834V1.27344H112.031V5.90088H99.1963V12.5088H110.165V16.9839ZM136.673 5.90088H128.18V29H122.467V5.90088H114.088V1.27344H136.673V5.90088Z" fill="white"/>
<path d="M22.0342 27.7051L21.5074 26.8551L21.5047 26.8567L22.0342 27.7051ZM5.52393 23.0015L4.62292 23.4353L4.62398 23.4375L5.52393 23.0015ZM4.01953 15.9175L3.01952 15.9175L3.01954 15.9222L4.01953 15.9175ZM5.48584 7.34814L4.58277 6.91864L4.58165 6.92101L5.48584 7.34814ZM9.65625 2.56836L10.1814 3.4194L10.183 3.41837L9.65625 2.56836ZM21.9771 2.56836L21.4476 3.41672L21.4546 3.42105L21.9771 2.56836ZM26.1475 7.34814L25.2422 7.77316L25.2454 7.7798L26.1475 7.34814ZM11.3892 7.8623L12.2081 8.43624L12.2103 8.43296L11.3892 7.8623ZM9.80859 14.4131L8.80859 14.4087V14.4131H9.80859ZM20.2822 22.4492L21.1067 23.0152L21.1089 23.0119L20.2822 22.4492ZM21.8438 15.8604L22.8438 15.8648V15.8604H21.8438ZM26.6328 15.7651C26.6328 18.377 26.1714 20.62 25.2802 22.5196L27.0909 23.3691C28.1294 21.1554 28.6328 18.6123 28.6328 15.7651H26.6328ZM25.2802 22.5196C24.3916 24.4139 23.1336 25.8473 21.5074 26.8551L22.5609 28.5551C24.5403 27.3285 26.0498 25.5881 27.0909 23.3691L25.2802 22.5196ZM21.5047 26.8567C19.8893 27.8649 18.0199 28.3809 15.8643 28.3809V30.3809C18.3551 30.3809 20.599 29.7796 22.5636 28.5534L21.5047 26.8567ZM15.8643 28.3809C13.7342 28.3809 11.8677 27.8713 10.2358 26.8714L9.19096 28.5768C11.1645 29.7859 13.3986 30.3809 15.8643 30.3809V28.3809ZM10.2358 26.8714C8.60837 25.8743 7.33717 24.4506 6.42387 22.5655L4.62398 23.4375C5.69115 25.6402 7.21292 27.3649 9.19096 28.5768L10.2358 26.8714ZM6.42493 22.5676C5.50912 20.6656 5.03163 18.455 5.01952 15.9127L3.01954 15.9222C3.03283 18.712 3.55826 21.2241 4.62292 23.4353L6.42493 22.5676ZM5.01953 15.9175V14.5464H3.01953V15.9175H5.01953ZM5.01953 14.5464C5.01953 11.9365 5.48658 9.68778 6.39003 7.77528L4.58165 6.92101C3.53003 9.14718 3.01953 11.6973 3.01953 14.5464H5.01953ZM6.3889 7.77765C7.30465 5.85223 8.57092 4.41307 10.1814 3.4194L9.13114 1.71732C7.1615 2.93264 5.64749 4.68 4.58278 6.91864L6.3889 7.77765ZM10.183 3.41837C11.8135 2.40794 13.6845 1.89258 15.8262 1.89258V-0.107422C13.3468 -0.107422 11.1045 0.494407 9.12948 1.71835L10.183 3.41837ZM15.8262 1.89258C17.9679 1.89258 19.8313 2.40795 21.4476 3.4167L22.5065 1.72002C20.5427 0.494397 18.3055 -0.107422 15.8262 -0.107422V1.89258ZM21.4546 3.42105C23.0761 4.41446 24.3402 5.85178 25.2423 7.77314L27.0527 6.92315C25.9997 4.68044 24.4835 2.93124 22.4995 1.71567L21.4546 3.42105ZM25.2454 7.7798C26.1603 9.69176 26.6328 11.9327 26.6328 14.5273H28.6328C28.6328 11.6884 28.115 9.1432 27.0495 6.91649L25.2454 7.7798ZM26.6328 14.5273V15.7651H28.6328V14.5273H26.6328ZM22.8438 14.5083C22.8438 11.5075 22.311 9.06317 21.1057 7.31394L19.4588 8.44876C20.3355 9.72101 20.8438 11.6946 20.8438 14.5083H22.8438ZM21.1057 7.31394C19.8668 5.51612 18.0646 4.61523 15.8262 4.61523V6.61523C17.4472 6.61523 18.6156 7.22509 19.4588 8.44876L21.1057 7.31394ZM15.8262 4.61523C13.6014 4.61523 11.8069 5.50883 10.568 7.29165L12.2103 8.43296C13.0535 7.21969 14.217 6.61523 15.8262 6.61523V4.61523ZM10.5703 7.28837C9.36174 9.01272 8.82171 11.4335 8.8086 14.4087L10.8086 14.4175C10.8209 11.629 11.3345 9.6826 12.2081 8.43624L10.5703 7.28837ZM8.80859 14.4131V15.7651H10.8086V14.4131H8.80859ZM8.80859 15.7651C8.80859 18.6996 9.34499 21.1191 10.5381 22.9087L12.2022 21.7993C11.3132 20.4659 10.8086 18.4928 10.8086 15.7651H8.80859ZM10.5381 22.9087C11.7736 24.7621 13.5915 25.6963 15.8643 25.6963V23.6963C14.2268 23.6963 13.0486 23.069 12.2022 21.7993L10.5381 22.9087ZM15.8643 25.6963C18.0893 25.6963 19.88 24.8022 21.1067 23.0152L19.4578 21.8833C18.6278 23.0924 17.4732 23.6963 15.8643 23.6963V25.6963ZM21.1089 23.0119C22.2969 21.2666 22.8306 18.84 22.8437 15.8648L20.8438 15.8559C20.8315 18.6444 20.3242 20.6103 19.4556 21.8865L21.1089 23.0119ZM22.8438 15.8604V14.5083H20.8438V15.8604H22.8438ZM39.249 1.27344L40.1917 0.93959L39.9557 0.273438H39.249V1.27344ZM46.3711 21.3828L45.4285 21.7167L46.3736 24.3853L47.3143 21.7151L46.3711 21.3828ZM53.4551 1.27344V0.273438H52.7471L52.5119 0.941178L53.4551 1.27344ZM60.958 1.27344H61.958V0.273438H60.958V1.27344ZM60.958 29V30H61.958V29H60.958ZM55.2261 29H54.2261V30H55.2261V29ZM55.2261 21.4209L54.227 21.3773L54.2261 21.3991V21.4209H55.2261ZM55.7974 8.33838L56.7964 8.38201L54.8571 7.99782L55.7974 8.33838ZM48.3135 29V30H49.0148L49.2537 29.3406L48.3135 29ZM44.3906 29L43.4502 29.3401L43.6889 30H44.3906V29ZM36.9258 8.35742L37.8662 8.01735L35.9267 8.40111L36.9258 8.35742ZM37.4971 21.4209H38.4971V21.399L38.4961 21.3772L37.4971 21.4209ZM37.4971 29V30H38.4971V29H37.4971ZM31.7842 29H30.7842V30H31.7842V29ZM31.7842 1.27344V0.273438H30.7842V1.27344H31.7842ZM38.3064 1.60728L45.4285 21.7167L47.3137 21.049L40.1917 0.93959L38.3064 1.60728ZM47.3143 21.7151L54.3983 1.6057L52.5119 0.941178L45.4279 21.0506L47.3143 21.7151ZM53.4551 2.27344H60.958V0.273438H53.4551V2.27344ZM59.958 1.27344V29H61.958V1.27344H59.958ZM60.958 28H55.2261V30H60.958V28ZM56.2261 29V21.4209H54.2261V29H56.2261ZM56.2251 21.4645L56.7964 8.38201L54.7983 8.29475L54.227 21.3773L56.2251 21.4645ZM54.8571 7.99782L47.3733 28.6594L49.2537 29.3406L56.7376 8.67894L54.8571 7.99782ZM48.3135 28H44.3906V30H48.3135V28ZM45.331 28.6599L37.8662 8.01735L35.9854 8.69749L43.4502 29.3401L45.331 28.6599ZM35.9267 8.40111L36.498 21.4646L38.4961 21.3772L37.9248 8.31373L35.9267 8.40111ZM36.4971 21.4209V29H38.4971V21.4209H36.4971ZM37.4971 28H31.7842V30H37.4971V28ZM32.7842 29V1.27344H30.7842V29H32.7842ZM31.7842 2.27344H39.249V0.273438H31.7842V2.27344ZM88.4941 29V30H89.4941V29H88.4941ZM82.7812 29L81.9274 29.5205L82.2197 30H82.7812V29ZM71.6602 10.7568L72.514 10.2363L70.6602 7.19524V10.7568H71.6602ZM71.6602 29V30H72.6602V29H71.6602ZM65.9473 29H64.9473V30H65.9473V29ZM65.9473 1.27344V0.273438H64.9473V1.27344H65.9473ZM71.6602 1.27344L72.5141 0.753067L72.2218 0.273438H71.6602V1.27344ZM82.8003 19.5547L81.9464 20.0751L83.8003 23.1174V19.5547H82.8003ZM82.8003 1.27344V0.273438H81.8003V1.27344H82.8003ZM88.4941 1.27344H89.4941V0.273438H88.4941V1.27344ZM88.4941 28H82.7812V30H88.4941V28ZM83.6351 28.4795L72.514 10.2363L70.8063 11.2773L81.9274 29.5205L83.6351 28.4795ZM70.6602 10.7568V29H72.6602V10.7568H70.6602ZM71.6602 28H65.9473V30H71.6602V28ZM66.9473 29V1.27344H64.9473V29H66.9473ZM65.9473 2.27344H71.6602V0.273438H65.9473V2.27344ZM70.8062 1.79381L81.9464 20.0751L83.6542 19.0343L72.5141 0.753067L70.8062 1.79381ZM83.8003 19.5547V1.27344H81.8003V19.5547H83.8003ZM82.8003 2.27344H88.4941V0.273438H82.8003V2.27344ZM87.4941 1.27344V29H89.4941V1.27344H87.4941ZM110.165 16.9839V17.9839H111.165V16.9839H110.165ZM99.1963 16.9839V15.9839H98.1963V16.9839H99.1963ZM99.1963 24.4106H98.1963V25.4106H99.1963V24.4106ZM112.069 24.4106H113.069V23.4106H112.069V24.4106ZM112.069 29V30H113.069V29H112.069ZM93.4834 29H92.4834V30H93.4834V29ZM93.4834 1.27344V0.273438H92.4834V1.27344H93.4834ZM112.031 1.27344H113.031V0.273438H112.031V1.27344ZM112.031 5.90088V6.90088H113.031V5.90088H112.031ZM99.1963 5.90088V4.90088H98.1963V5.90088H99.1963ZM99.1963 12.5088H98.1963V13.5088H99.1963V12.5088ZM110.165 12.5088H111.165V11.5088H110.165V12.5088ZM110.165 15.9839H99.1963V17.9839H110.165V15.9839ZM98.1963 16.9839V24.4106H100.196V16.9839H98.1963ZM99.1963 25.4106H112.069V23.4106H99.1963V25.4106ZM111.069 24.4106V29H113.069V24.4106H111.069ZM112.069 28H93.4834V30H112.069V28ZM94.4834 29V1.27344H92.4834V29H94.4834ZM93.4834 2.27344H112.031V0.273438H93.4834V2.27344ZM111.031 1.27344V5.90088H113.031V1.27344H111.031ZM112.031 4.90088H99.1963V6.90088H112.031V4.90088ZM98.1963 5.90088V12.5088H100.196V5.90088H98.1963ZM99.1963 13.5088H110.165V11.5088H99.1963V13.5088ZM109.165 12.5088V16.9839H111.165V12.5088H109.165ZM136.673 5.90088V6.90088H137.673V5.90088H136.673ZM128.18 5.90088V4.90088H127.18V5.90088H128.18ZM128.18 29V30H129.18V29H128.18ZM122.467 29H121.467V30H122.467V29ZM122.467 5.90088H123.467V4.90088H122.467V5.90088ZM114.088 5.90088H113.088V6.90088H114.088V5.90088ZM114.088 1.27344V0.273438H113.088V1.27344H114.088ZM136.673 1.27344H137.673V0.273438H136.673V1.27344ZM136.673 4.90088H128.18V6.90088H136.673V4.90088ZM127.18 5.90088V29H129.18V5.90088H127.18ZM128.18 28H122.467V30H128.18V28ZM123.467 29V5.90088H121.467V29H123.467ZM122.467 4.90088H114.088V6.90088H122.467V4.90088ZM115.088 5.90088V1.27344H113.088V5.90088H115.088ZM114.088 2.27344H136.673V0.273438H114.088V2.27344ZM135.673 1.27344V5.90088H137.673V1.27344H135.673Z" fill="#FE641C"/>
</g>
<defs>
<filter id="filter0_d_11:14" x="0.0195312" y="0.892578" width="140.653" height="36.4883" filterUnits="userSpaceOnUse" color-interpolation-filters="sRGB">
<feFlood flood-opacity="0" result="BackgroundImageFix"/>
<feColorMatrix in="SourceAlpha" type="matrix" values="0 0 0 0 0 0 0 0 0 0 0 0 0 0 0 0 0 0 127 0" result="hardAlpha"/>
<feOffset dy="4"/>
<feGaussianBlur stdDeviation="2"/>
<feComposite in2="hardAlpha" operator="out"/>
<feColorMatrix type="matrix" values="0 0 0 0 0.0875 0 0 0 0 0.0805729 0 0 0 0 0.0805729 0 0 0 0.25 0"/>
<feBlend mode="normal" in2="BackgroundImageFix" result="effect1_dropShadow_11:14"/>
<feBlend mode="normal" in="SourceGraphic" in2="effect1_dropShadow_11:14" result="shape"/>
</filter>
</defs>
</svg>
